<svg xmlns="http://www.w3.org/2000/svg" xmlns:xlink="http://www.w3.org/1999/xlink" width="500" zoomAndPan="magnify" viewBox="0 0 375 374.999991" height="500" preserveAspectRatio="xMidYMid meet" version="1.2"><defs><clipPath id="b691b0cb10"><rect x="0" width="335" y="0" height="309"/></clipPath></defs><g id="b1d731af7e"><g transform="matrix(1,0,0,1,20,33)"><g clip-path="url(#b691b0cb10)"><g style="fill:#000000;fill-opacity:1;"><g transform="translate(0.880536, 205.843741)"><path style="stroke:none" d="M 3.671875 -23.265625 C 2.535156 -30.566406 3.847656 -36.992188 7.609375 -42.546875 C 11.367188 -48.109375 16.484375 -52.515625 22.953125 -55.765625 C 29.429688 -59.015625 36.207031 -60.765625 43.28125 -61.015625 C 50.351562 -61.273438 56.597656 -59.679688 62.015625 -56.234375 C 67.429688 -52.785156 70.960938 -47.179688 72.609375 -39.421875 C 74.210938 -28.929688 72.304688 -20.28125 66.890625 -13.46875 C 61.472656 -6.65625 54.484375 -2.421875 45.921875 -0.765625 C 40.453125 0.203125 35.109375 0.273438 29.890625 -0.546875 C 24.671875 -1.378906 20.550781 -2.847656 17.53125 -4.953125 C 14.738281 -7.015625 11.941406 -9.671875 9.140625 -12.921875 C 6.347656 -16.171875 4.523438 -19.617188 3.671875 -23.265625 Z M 54.3125 -27.03125 C 56.707031 -30.789062 57.035156 -34.46875 55.296875 -38.0625 C 53.554688 -41.65625 50.734375 -44.429688 46.828125 -46.390625 C 42.921875 -48.359375 38.84375 -48.726562 34.59375 -47.5 C 30.34375 -46.28125 26.878906 -42.734375 24.203125 -36.859375 C 22.097656 -31.554688 21.984375 -27.460938 23.859375 -24.578125 C 25.742188 -21.703125 28.648438 -19.921875 32.578125 -19.234375 C 36.515625 -18.554688 40.535156 -18.882812 44.640625 -20.21875 C 48.753906 -21.5625 51.976562 -23.832031 54.3125 -27.03125 Z M 54.3125 -27.03125 "/></g></g><g style="fill:#000000;fill-opacity:1;"><g transform="translate(79.656055, 205.843741)"><path style="stroke:none" d="M 35.15625 -40.890625 C 36.351562 -33.472656 36.476562 -26 35.53125 -18.46875 C 34.59375 -10.945312 32.285156 -4.023438 28.609375 2.296875 C 24.929688 8.628906 19.554688 13.707031 12.484375 17.53125 C 9.347656 19.1875 5.96875 20.457031 2.34375 21.34375 C -1.269531 22.226562 -4.875 22.410156 -8.46875 21.890625 C -9.894531 21.722656 -11.535156 21.238281 -13.390625 20.4375 C -15.242188 19.644531 -16.335938 18.476562 -16.671875 16.9375 C -16.785156 15.5625 -16.160156 14.347656 -14.796875 13.296875 C -13.429688 12.242188 -11.878906 11.359375 -10.140625 10.640625 C -8.398438 9.929688 -7.046875 9.460938 -6.078125 9.234375 C -0.367188 7.523438 4.265625 4.660156 7.828125 0.640625 C 11.390625 -3.378906 14.140625 -8.15625 16.078125 -13.6875 C 17.617188 -18.707031 18.046875 -23.835938 17.359375 -29.078125 C 17.191406 -31.128906 16.960938 -33.179688 16.671875 -35.234375 C 16.335938 -37.691406 16.082031 -40.171875 15.90625 -42.671875 C 15.738281 -44.097656 15.722656 -45.640625 15.859375 -47.296875 C 16.003906 -48.953125 16.476562 -50.40625 17.28125 -51.65625 C 18.070312 -52.738281 19.09375 -53.507812 20.34375 -53.96875 C 21.601562 -54.425781 22.890625 -54.710938 24.203125 -54.828125 C 25.515625 -54.941406 26.835938 -54.882812 28.171875 -54.65625 C 29.515625 -54.425781 30.671875 -53.796875 31.640625 -52.765625 C 32.671875 -51.566406 33.410156 -49.96875 33.859375 -47.96875 C 34.316406 -45.976562 34.660156 -44.070312 34.890625 -42.25 C 34.953125 -41.789062 35.039062 -41.335938 35.15625 -40.890625 Z M 35.15625 -40.890625 "/></g></g><g style="fill:#000000;fill-opacity:1;"><g transform="translate(123.961968, 205.843741)"><path style="stroke:none" d="M 37.203125 -19.421875 L 37.203125 0 L 33.53125 0 C 25.945312 0 20.097656 -1.378906 15.984375 -4.140625 C 11.878906 -6.910156 8.941406 -10.632812 7.171875 -15.3125 C 5.410156 -19.988281 4.375 -25.257812 4.0625 -31.125 C 3.75 -37 3.648438 -43.101562 3.765625 -49.4375 C 3.765625 -49.894531 3.765625 -50.351562 3.765625 -50.8125 L 4.109375 -86.5625 C 4.390625 -90.78125 6 -93.769531 8.9375 -95.53125 C 11.875 -97.300781 14.78125 -97.359375 17.65625 -95.703125 C 20.539062 -94.054688 22.066406 -90.179688 22.234375 -84.078125 L 21.546875 -33.4375 C 21.835938 -27.96875 23.335938 -24.234375 26.046875 -22.234375 C 28.753906 -20.242188 32.019531 -19.304688 35.84375 -19.421875 Z M 36.859375 -19.421875 C 38.460938 -19.421875 40.046875 -19.003906 41.609375 -18.171875 C 43.179688 -17.347656 44.394531 -16.148438 45.25 -14.578125 C 46.101562 -13.015625 46.53125 -11.40625 46.53125 -9.75 C 46.53125 -8.039062 46.113281 -6.414062 45.28125 -4.875 C 44.457031 -3.332031 43.257812 -2.132812 41.6875 -1.28125 C 40.125 -0.425781 38.515625 0 36.859375 0 C 35.148438 0 33.523438 -0.425781 31.984375 -1.28125 C 30.441406 -2.132812 29.242188 -3.332031 28.390625 -4.875 C 27.535156 -6.414062 27.109375 -8.039062 27.109375 -9.75 C 27.109375 -11.40625 27.550781 -13.015625 28.4375 -14.578125 C 29.320312 -16.148438 30.535156 -17.347656 32.078125 -18.171875 C 33.617188 -19.003906 35.210938 -19.421875 36.859375 -19.421875 Z M 36.859375 -19.421875 "/></g></g><g style="fill:#000000;fill-opacity:1;"><g transform="translate(161.168642, 205.843741)"><path style="stroke:none" d="M -0.171875 -19.421875 C 1.484375 -19.421875 3.078125 -19.003906 4.609375 -18.171875 C 6.148438 -17.347656 7.363281 -16.148438 8.25 -14.578125 C 9.132812 -13.015625 9.578125 -11.40625 9.578125 -9.75 C 9.578125 -8.039062 9.148438 -6.414062 8.296875 -4.875 C 7.441406 -3.332031 6.242188 -2.132812 4.703125 -1.28125 C 3.160156 -0.425781 1.535156 0 -0.171875 0 C -1.828125 0 -3.4375 -0.425781 -5 -1.28125 C -6.570312 -2.132812 -7.769531 -3.332031 -8.59375 -4.875 C -9.414062 -6.414062 -9.828125 -8.039062 -9.828125 -9.75 C -9.828125 -11.40625 -9.398438 -13.015625 -8.546875 -14.578125 C -7.691406 -16.148438 -6.492188 -17.347656 -4.953125 -18.171875 C -3.421875 -19.003906 -1.828125 -19.421875 -0.171875 -19.421875 Z M -0.078125 0 L -0.078125 -19.421875 L 13.09375 -19.421875 C 19.070312 -19.929688 23.242188 -22.679688 25.609375 -27.671875 C 27.984375 -32.660156 28.457031 -37.773438 27.03125 -43.015625 C 25.320312 -49.117188 25.0625 -53.28125 26.25 -55.5 C 27.445312 -57.726562 29.316406 -58.382812 31.859375 -57.46875 C 34.398438 -56.5625 36.820312 -54.46875 39.125 -51.1875 C 41.4375 -47.90625 42.878906 -43.785156 43.453125 -38.828125 C 44.078125 -32.441406 43.363281 -26.410156 41.3125 -20.734375 C 39.257812 -15.066406 35.8125 -10.347656 30.96875 -6.578125 C 26.289062 -2.929688 20.1875 -0.738281 12.65625 0 C 4.382812 0 0.140625 0 -0.078125 0 Z M 15.90625 8.984375 C 20.125 7.847656 24 8.191406 27.53125 10.015625 C 31.070312 11.835938 33.351562 14.457031 34.375 17.875 C 35.226562 22.15625 34.441406 25.691406 32.015625 28.484375 C 29.597656 31.273438 26.90625 33.046875 23.9375 33.796875 C 18.070312 34.878906 13.441406 33.765625 10.046875 30.453125 C 6.648438 27.148438 5.25 23.300781 5.84375 18.90625 C 6.445312 14.519531 9.800781 11.210938 15.90625 8.984375 Z M 15.90625 8.984375 "/></g></g><g style="fill:#000000;fill-opacity:1;"><g transform="translate(212.488231, 205.843741)"><path style="stroke:none" d="M 31.140625 -19.5 C 35.128906 -19.78125 37.59375 -21.347656 38.53125 -24.203125 C 39.46875 -27.054688 38.992188 -29.835938 37.109375 -32.546875 C 35.234375 -35.253906 31.988281 -36.578125 27.375 -36.515625 C 25.03125 -36.347656 23.070312 -35.410156 21.5 -33.703125 C 19.9375 -31.992188 19.328125 -29.769531 19.671875 -27.03125 C 20.066406 -24.914062 21.390625 -23.128906 23.640625 -21.671875 C 25.898438 -20.222656 28.398438 -19.5 31.140625 -19.5 Z M 28.390625 -5.734375 C 22.921875 -5.785156 17.914062 -7.347656 13.375 -10.421875 C 8.84375 -13.503906 5.78125 -17.898438 4.1875 -23.609375 C 3.164062 -27.941406 3.421875 -32.316406 4.953125 -36.734375 C 6.492188 -41.148438 9.128906 -44.941406 12.859375 -48.109375 C 16.597656 -51.273438 21.289062 -53.113281 26.9375 -53.625 C 35.4375 -54.082031 41.9375 -51.628906 46.4375 -46.265625 C 50.207031 -41.535156 52.09375 -36.207031 52.09375 -30.28125 C 52.488281 -20.582031 50.875 -11.398438 47.25 -2.734375 C 43.632812 5.929688 37.40625 12.6875 28.5625 17.53125 C 25.375 19.1875 21.96875 20.457031 18.34375 21.34375 C 14.726562 22.226562 11.125 22.441406 7.53125 21.984375 C 6.15625 21.804688 4.523438 21.316406 2.640625 20.515625 C 0.765625 19.722656 -0.34375 18.53125 -0.6875 16.9375 C -0.738281 15.625 -0.0820312 14.4375 1.28125 13.375 C 2.644531 12.320312 4.179688 11.441406 5.890625 10.734375 C 7.609375 10.023438 8.953125 9.523438 9.921875 9.234375 C 18.359375 6.609375 24.515625 1.617188 28.390625 -5.734375 Z M 28.390625 -5.734375 "/></g></g><g style="fill:#000000;fill-opacity:1;"><g transform="translate(269.452949, 205.843741)"><path style="stroke:none" d="M 43.96875 -34.21875 C 42.476562 -39.0625 37.828125 -43.675781 30.015625 -48.0625 C 25.796875 -50.34375 22.546875 -52.597656 20.265625 -54.828125 C 18.046875 -57.566406 17.234375 -60.359375 17.828125 -63.203125 C 18.429688 -66.054688 20.054688 -68.179688 22.703125 -69.578125 C 25.359375 -70.972656 28.738281 -70.816406 32.84375 -69.109375 C 37.34375 -66.941406 43.128906 -62.894531 50.203125 -56.96875 C 56.929688 -50.914062 60.894531 -43.726562 62.09375 -35.40625 L 62.1875 -35.5 C 62.238281 -34.8125 62.265625 -34.125 62.265625 -33.4375 C 62.265625 -27.675781 61.066406 -22.570312 58.671875 -18.125 C 55.191406 -12.082031 50.160156 -7.476562 43.578125 -4.3125 C 36.992188 -1.15625 29.9375 0.59375 22.40625 0.9375 C 15.164062 1.113281 9.988281 -0.0195312 6.875 -2.46875 C 3.769531 -4.925781 2.289062 -7.679688 2.4375 -10.734375 C 2.582031 -13.785156 3.878906 -16.082031 6.328125 -17.625 C 8.210938 -18.414062 11.632812 -18.695312 16.59375 -18.46875 C 19.5625 -18.414062 22.671875 -18.472656 25.921875 -18.640625 C 33.898438 -19.097656 39.203125 -20.695312 41.828125 -23.4375 C 44.453125 -26.175781 45.164062 -29.769531 43.96875 -34.21875 Z M 43.96875 -34.21875 "/></g></g></g></g></g></svg>